HIERARCHY
ROOT joint_Root
{
	OFFSET 0.0 0.0 0.0
	CHANNELS 6 Xposition Yposition Zposition Zrotation Xrotation Yrotation 
	JOINT Hips
	{
		OFFSET -0.726466 93.3139 -2.00062
		CHANNELS 6 Xposition Yposition Zposition Zrotation Xrotation Yrotation 
		JOINT Spine
		{
			OFFSET 15.7357 0.0 0.0
			CHANNELS 6 Xposition Yposition Zposition Zrotation Xrotation Yrotation 
			JOINT Chest
			{
				OFFSET 8.98455 -0.406207 0.0
				CHANNELS 6 Xposition Yposition Zposition Zrotation Xrotation Yrotation 
				JOINT Neck
				{
					OFFSET 16.3773 0.0 0.0
					CHANNELS 6 Xposition Yposition Zposition Zrotation Xrotation Yrotation 
					JOINT Head
					{
						OFFSET 6.45672 0.0 0.0
						CHANNELS 6 Xposition Yposition Zposition Zrotation Xrotation Yrotation 
						End Site
						{
							OFFSET 0.0 0.0 0.0
						}
					}
				}
				JOINT Shoulder_L
				{
					OFFSET 12.9942 -0.242716 4.98039
					CHANNELS 6 Xposition Yposition Zposition Zrotation Xrotation Yrotation 
					JOINT UpperArm_L
					{
						OFFSET 5.34809 0.0 0.0
						CHANNELS 6 Xposition Yposition Zposition Zrotation Xrotation Yrotation 
						JOINT LowerArm_L
						{
							OFFSET 24.3286 1.87007e-05 0.0
							CHANNELS 6 Xposition Yposition Zposition Zrotation Xrotation Yrotation 
							JOINT Hand_L
							{
								OFFSET 22.2916 0.0 0.0
								CHANNELS 6 Xposition Yposition Zposition Zrotation Xrotation Yrotation 
								End Site
								{
									OFFSET 0.0 0.0 0.0
								}
							}
						}
					}
				}
				JOINT Shoulder_R
				{
					OFFSET 12.9945 -0.242716 -4.98039
					CHANNELS 6 Xposition Yposition Zposition Zrotation Xrotation Yrotation 
					JOINT UpperArm_R
					{
						OFFSET -5.34813 0.0 0.0
						CHANNELS 6 Xposition Yposition Zposition Zrotation Xrotation Yrotation 
						JOINT LowerArm_R
						{
							OFFSET -24.3289 0.000322201 0.0
							CHANNELS 6 Xposition Yposition Zposition Zrotation Xrotation Yrotation 
							JOINT Hand_R
							{
								OFFSET -22.2915 -0.000108084 0.0
								CHANNELS 6 Xposition Yposition Zposition Zrotation Xrotation Yrotation 
								End Site
								{
									OFFSET 0.0 0.0 0.0
								}
							}
						}
					}
				}
			}
		}
		JOINT UpperLeg_L
		{
			OFFSET -2.19248 -6.46944 0.0
			CHANNELS 6 Xposition Yposition Zposition Zrotation Xrotation Yrotation 
			JOINT LowerLeg_L
			{
				OFFSET 39.0811 0.0 -1.23785e-05
				CHANNELS 6 Xposition Yposition Zposition Zrotation Xrotation Yrotation 
				JOINT Foot_L
				{
					OFFSET 40.9854 0.0 -1.26872e-05
					CHANNELS 6 Xposition Yposition Zposition Zrotation Xrotation Yrotation 
					JOINT Toes_L
					{
						OFFSET 11.7543 0.0 0.0
						CHANNELS 6 Xposition Yposition Zposition Zrotation Xrotation Yrotation 
						End Site
						{
							OFFSET 0.0 0.0 0.0
						}
					}
				}
			}
		}
		JOINT UpperLeg_R
		{
			OFFSET -2.19251 6.46944 0.0
			CHANNELS 6 Xposition Yposition Zposition Zrotation Xrotation Yrotation 
			JOINT LowerLeg_R
			{
				OFFSET -39.0811 -0.00228153 -0.0401928
				CHANNELS 6 Xposition Yposition Zposition Zrotation Xrotation Yrotation 
				JOINT Foot_R
				{
					OFFSET -40.9854 0.0 0.0
					CHANNELS 6 Xposition Yposition Zposition Zrotation Xrotation Yrotation 
					JOINT Toes_R
					{
						OFFSET -11.7543 0.0 0.0
						CHANNELS 6 Xposition Yposition Zposition Zrotation Xrotation Yrotation 
						End Site
						{
							OFFSET 0.0 0.0 0.0
						}
					}
				}
			}
		}
	}
}
MOTION
Frames:	5
Frame Time:	0.0333333
0.000000 0.000000 0.000000 0.000000 0.000000 -0.000000 -0.335379 92.271900 -0.902436 88.076100 -0.924606 5.223230 15.735700 0.000005 -0.000001 84.545000 85.100500 -83.788100 8.984550 -0.406207 -0.000000 1.995620 -0.969013 1.529280 16.377300 -0.000001 -0.000001 2.198690 -2.258620 -0.049106 6.456720 -0.000001 -0.000000 5.793130 -2.879850 -0.695623 12.994200 -0.242716 4.980390 -89.986500 -0.043451 -72.749000 5.348090 -0.000007 -0.000001 -69.541800 37.915100 -13.068900 24.328600 0.000019 0.000005 1.518710 3.778830 -21.913400 22.291600 -0.000001 0.000005 4.940110 5.462590 -5.094960 12.994500 -0.242716 -4.980390 88.319300 5.495280 -72.965300 -5.348130 -0.000001 -0.000004 -66.125400 40.696600 -15.212600 -24.328900 0.000322 -0.000009 2.493290 8.606300 -16.230400 -22.291500 -0.000108 -0.000004 9.395480 5.407540 -3.184100 -2.192480 -6.469440 -0.000000 -175.391000 -8.273580 -1.872980 39.081100 -0.000007 -0.000012 -0.104208 0.241757 23.318300 40.985400 -0.000006 -0.000013 0.159075 4.115820 -66.371900 11.754300 -0.000000 0.000003 -0.000041 -0.000476 -16.596100 -2.192510 6.469440 -0.000001 179.410000 13.879000 -179.176000 -39.081100 -0.002282 -0.040193 -0.056453 0.166528 19.745500 -40.985400 0.000008 0.000006 2.936090 8.275490 -65.731200 -11.754300 -0.000006 -0.000006 -0.008883 -0.095097 -20.446400
0.000000 0.000000 0.000000 0.000000 0.000000 -0.000000 -0.351950 92.267100 -0.908778 88.081700 -0.905445 5.269760 15.735700 0.000005 -0.000001 84.782700 85.082200 -83.978200 8.984550 -0.406207 -0.000000 2.036200 -0.934004 1.624110 16.377300 -0.000001 -0.000001 2.199490 -2.289630 -0.028777 6.456720 -0.000001 -0.000000 5.835730 -2.849540 -0.851913 12.994200 -0.242716 4.980390 -90.109600 0.356376 -72.911000 5.348090 -0.000007 -0.000001 -68.425400 36.477200 -13.724500 24.328600 0.000019 0.000005 2.031990 4.750480 -23.187500 22.291600 -0.000001 0.000005 3.622160 5.470300 -5.382810 12.994500 -0.242716 -4.980390 88.357900 5.368450 -72.964400 -5.348130 -0.000001 -0.000004 -66.240500 40.531800 -15.238200 -24.328900 0.000322 -0.000009 2.478710 8.551720 -16.237300 -22.291500 -0.000108 -0.000004 9.334810 5.408450 -3.214000 -2.192480 -6.469440 -0.000000 -175.373000 -8.255020 -1.837360 39.081100 -0.000007 -0.000012 -0.105141 0.243647 23.341800 40.985400 -0.000006 -0.000013 0.145401 4.128970 -66.383300 11.754300 -0.000000 0.000003 -0.000040 -0.000466 -16.595700 -2.192510 6.469440 -0.000001 179.394000 13.898400 -179.141000 -39.081100 -0.002282 -0.040193 -0.057093 0.168012 19.777800 -40.985400 0.000008 0.000006 2.916970 8.296200 -65.747700 -11.754300 -0.000006 -0.000006 -0.009053 -0.096421 -20.500600
0.000000 0.000000 0.000000 0.000000 0.000000 -0.000000 -0.381801 92.267700 -0.970439 88.090400 -0.632228 5.266340 15.735700 0.000005 -0.000001 84.960900 85.075100 -84.096200 8.984550 -0.406207 -0.000000 2.053400 -0.907664 1.744060 16.377300 -0.000001 -0.000001 2.209020 -2.436240 -0.035499 6.456720 -0.000001 -0.000000 5.913280 -2.848090 -1.124000 12.994200 -0.242716 4.980390 -90.350500 1.157240 -73.146600 5.348090 -0.000007 -0.000001 -65.543500 34.111100 -15.606800 24.328600 0.000019 0.000005 2.616140 5.406850 -25.866300 22.291600 -0.000001 0.000005 2.930400 5.466420 -5.236540 12.994500 -0.242716 -4.980390 88.419600 5.156750 -72.935300 -5.348130 -0.000001 -0.000004 -66.483700 40.281600 -15.194800 -24.328900 0.000322 -0.000009 2.442260 8.485720 -16.127800 -22.291500 -0.000108 -0.000004 9.356900 5.409420 -3.245970 -2.192480 -6.469440 -0.000000 -175.381000 -8.114690 -1.953820 39.081100 -0.000007 -0.000012 -0.104397 0.241433 23.384000 40.985400 -0.000006 -0.000013 0.156639 4.245530 -66.330000 11.754300 -0.000000 0.000003 -0.000039 -0.000459 -16.595400 -2.192510 6.469440 -0.000001 179.384000 14.167600 -179.179000 -39.081100 -0.002282 -0.040193 -0.058758 0.172424 19.801100 -40.985400 0.000008 0.000006 2.917350 8.278020 -65.735600 -11.754300 -0.000006 -0.000006 -0.008896 -0.095191 -20.450300
0.000000 0.000000 0.000000 0.000000 0.000000 -0.000000 -0.460967 92.271700 -1.037690 88.108800 -0.122531 5.291830 15.735700 0.000005 -0.000001 85.269600 85.082600 -84.383300 8.984550 -0.406207 -0.000000 2.042790 -0.854760 1.786230 16.377300 -0.000001 -0.000001 2.348400 -2.600490 -0.089218 6.456720 -0.000001 -0.000000 6.080820 -3.074500 -1.216370 12.994200 -0.242716 4.980390 -90.483100 1.604770 -73.244200 5.348090 -0.000007 -0.000001 -62.208300 29.711200 -18.677600 24.328600 0.000019 0.000005 3.069870 5.421660 -29.581400 22.291600 -0.000001 0.000005 3.978090 5.472440 -5.456960 12.994500 -0.242716 -4.980390 88.460800 5.011320 -72.901800 -5.348130 -0.000001 -0.000004 -66.759200 40.119700 -14.983000 -24.328900 0.000322 -0.000009 2.421400 8.464680 -16.034500 -22.291500 -0.000108 -0.000004 9.159420 5.408200 -3.205850 -2.192480 -6.469440 -0.000000 -175.338000 -7.973300 -2.066340 39.081100 -0.000007 -0.000012 -0.105726 0.244297 23.401900 40.985400 -0.000006 -0.000013 0.179771 4.622850 -66.236400 11.754300 -0.000000 0.000003 -0.000039 -0.000454 -16.595300 -2.192510 6.469440 -0.000001 179.377000 14.606400 -179.156000 -39.081100 -0.002282 -0.040193 -0.060049 0.176148 19.786800 -40.985400 0.000008 0.000006 2.916950 8.187700 -65.718100 -11.754300 -0.000006 -0.000006 -0.008938 -0.095520 -20.463700
0.000000 0.000000 0.000000 0.000000 0.000000 -0.000000 -0.568389 92.277200 -1.123590 88.198700 0.557290 5.368580 15.735700 0.000005 -0.000001 85.228800 85.108700 -84.325500 8.984550 -0.406207 -0.000000 1.990250 -0.858673 1.819750 16.377300 -0.000001 -0.000001 2.647060 -2.676440 -0.228521 6.456720 -0.000001 -0.000000 6.314630 -3.405500 -1.341250 12.994200 -0.242716 4.980390 -90.475200 1.585980 -73.318500 5.348090 -0.000007 -0.000001 -59.624200 23.570700 -22.232600 24.328600 0.000019 0.000005 2.751650 4.015710 -34.476400 22.291600 -0.000001 0.000005 6.218410 5.496060 -6.368510 12.994500 -0.242716 -4.980390 88.485900 4.938580 -72.931400 -5.348130 -0.000001 -0.000004 -66.730500 40.356000 -14.826100 -24.328900 0.000322 -0.000009 2.422730 8.587270 -15.827300 -22.291500 -0.000108 -0.000004 9.129460 5.408700 -3.221280 -2.192480 -6.469440 -0.000000 -175.356000 -7.692470 -2.107680 39.081100 -0.000007 -0.000012 -0.104217 0.241436 23.347700 40.985400 -0.000006 -0.000013 0.202284 5.084890 -66.102800 11.754300 -0.000000 0.000003 -0.000041 -0.000475 -16.596100 -2.192510 6.469440 -0.000001 179.286000 15.081900 -179.061000 -39.081100 -0.002282 -0.040193 -0.063884 0.187004 19.767700 -40.985400 0.000008 0.000006 2.775260 8.046420 -65.693400 -11.754300 -0.000006 -0.000006 -0.008764 -0.094159 -20.408100
